<?xml version="1.0" encoding="UTF-8"?>
<!DOCTYPE svg PUBLIC "-//W3C//DTD SVG 1.1//EN" "http://www.w3.org/Graphics/SVG/1.1/DTD/svg11.dtd">
<!-- Creator: CorelDRAW 2021 (64 Bit) -->
<svg xmlns="http://www.w3.org/2000/svg" xml:space="preserve" width="46.8722mm" height="46.8179mm" version="1.1" style="shape-rendering:geometricPrecision; text-rendering:geometricPrecision; image-rendering:optimizeQuality; fill-rule:evenodd; clip-rule:evenodd"
viewBox="0 0 411.74 411.26"
 xmlns:xlink="http://www.w3.org/1999/xlink"
 xmlns:xodm="http://www.corel.com/coreldraw/odm/2003">
 <defs>
  <style type="text/css">
   <![CDATA[
    .fil0 {fill:#0086F4}
   ]]>
  </style>
 </defs>
 <g id="Camada_x0020_1">
  <metadata id="CorelCorpID_0Corel-Layer"/>
  <path class="fil0" d="M206.83 345.58c-106.56,0 -179.68,-120.17 -115.81,-218.07l15.56 -19.3c10.65,-11.72 25.91,-20.78 39.8,-27.59 95.05,-46.66 199.89,28.57 199.89,123.2 0,78.27 -64.27,141.76 -139.43,141.76zm-206.83 -139.43c0,63.31 33.73,127.38 83.94,164.71 100.13,74.45 247.07,44.15 307.26,-75.61 33.31,-66.27 25.41,-151.69 -18.69,-210.63 -5.49,-7.33 -17.69,-22.32 -23.88,-27.24 -9.53,-7.58 -15.89,-14.12 -26.98,-21.82 -21.9,-15.2 -42.94,-24 -69.74,-30.19 -96.68,-22.34 -191.22,26.86 -232.56,115.56 -5.64,12.09 -10.1,23.56 -13,38.12 -2.19,10.97 -6.35,33.5 -6.35,47.1z"/>
 </g>
</svg>
