<?xml version="1.0" encoding="UTF-8"?>
<!DOCTYPE svg PUBLIC "-//W3C//DTD SVG 1.1//EN" "http://www.w3.org/Graphics/SVG/1.1/DTD/svg11.dtd">
<!-- Creator: CorelDRAW 2021 (64 Bit) -->
<svg xmlns="http://www.w3.org/2000/svg" xml:space="preserve" width="46.752mm" height="46.7333mm" version="1.1" style="shape-rendering:geometricPrecision; text-rendering:geometricPrecision; image-rendering:optimizeQuality; fill-rule:evenodd; clip-rule:evenodd"
viewBox="0 0 482.18 481.99"
 xmlns:xlink="http://www.w3.org/1999/xlink"
 xmlns:xodm="http://www.corel.com/coreldraw/odm/2003">
 <defs>
  <style type="text/css">
   <![CDATA[
    .fil0 {fill:#E94040}
   ]]>
  </style>
 </defs>
 <g id="Camada_x0020_1">
  <metadata id="CorelCorpID_0Corel-Layer"/>
  <path class="fil0" d="M179.32 242.83c-11.9,7.97 -135.55,134.41 -157.58,156.2 -9.97,9.86 -16.92,14.93 -20.64,31.42 -6.62,29.39 33.19,79.58 80.69,31.36l160.28 -158.95c7.65,11.42 97.8,99.17 115.28,116.64 13.97,13.97 43.75,47.08 58.62,55.97 27.17,16.24 66.2,1.68 66.2,-38.92 0,-25.95 -23.44,-41.18 -37.52,-55.25 -16.13,-16.13 -30.26,-30.26 -46.38,-46.38l-93.45 -94.81 137.1 -138.47c22.62,-22.62 40.24,-30.86 40.24,-60.71 0,-29.8 -21.68,-40.93 -49.11,-40.93 -20.55,0 -80.79,68.51 -97.54,85.26l-93.45 92.09 -139.83 -138.47c-17.04,-17.04 -30.39,-38.88 -59.34,-38.88 -27.92,0 -65.62,34.46 -25.22,79.79 28.99,32.53 149.45,144.83 161.65,163.04z"/>
 </g>
</svg>
